<svg width="800" height="800" viewBox="0 0 800 800" fill="none" xmlns="http://www.w3.org/2000/svg">
<path d="M418.952 38C208.552 38 38 208.552 38 418.952C38 629.352 208.552 799.905 418.952 799.905C629.352 799.905 799.905 629.352 799.905 418.952C799.905 208.552 629.352 38 418.952 38ZM418.952 79.4857C606.438 79.4857 758.419 231.467 758.419 418.952C758.419 606.438 606.438 758.419 418.952 758.419C231.467 758.419 79.4857 606.438 79.4857 418.952C79.4857 231.467 231.467 79.4857 418.952 79.4857ZM250.457 178.895C240.8 207.01 237.429 237.505 246.095 264.152C235.638 275.733 227.524 289.067 221.733 304.152C206.267 353.029 210.038 415.543 243.905 453.333C255.81 466.4 271.962 477.105 292.267 485.505C312.571 493.905 338.705 499.276 370.61 501.581C349.181 511.6 334.076 517.733 328.819 539.867C304.914 555.829 275.867 552.038 254.781 534.686C238.133 522.495 230.571 500.952 212.133 492.933C210.971 491.752 207.352 490.933 201.276 490.324C195.181 489.733 190.381 491.467 186.895 495.524C185.162 497.238 185.276 499.105 187.314 501.143C201.257 512.514 214.724 524.552 222.61 538.971C230.152 554.629 240.552 564.076 248.705 571.333C271.257 586.571 300.8 592.019 327.276 582.343C324.19 600.99 330.571 634.533 324.457 651.162C322.133 655.81 318.8 659.867 314.457 663.371C310.59 667.162 298.552 671.886 300.99 677.695C302.152 680.305 306.19 681.905 313.162 682.495C328.514 682.095 345.905 675.867 354.895 663.79C358.095 659.429 361.81 653.771 361.81 646.819V575.543C361.81 567.41 364.781 561.657 368.267 558.133C371.752 554.667 374.914 552 380.857 551.181V645.143C380.857 653.257 370.895 675.886 369.695 678.19C367.048 682.686 361.124 686.781 361.01 692.076C361.01 693.848 361.638 694.857 363.676 695.105C378.933 694.457 391.448 685.486 397.657 672.914C405.562 660.914 407.352 653.771 409.429 639.905V552.286H428.476V639.905C428.476 651.486 426.571 662.514 431.81 672.895C437.029 683.352 453.029 690.038 465.2 692.952C471.6 694.705 474.8 695.371 477.105 695.086C479.429 694.8 479.886 693.81 479.6 692.057C478.229 686.819 470.781 682.286 467.695 678.171C463.638 672.933 457.048 661.924 457.048 645.105V551.162C463.295 552.571 465.867 554.667 469.657 558.114C473.41 561.619 476.095 567.41 476.095 575.543V646.819C476.095 653.771 481.124 659.429 484.324 663.79C494.038 676.133 510.362 682.419 525.657 682.495C532.61 681.905 537.524 680.305 538.705 677.695C539.886 675.086 539.429 672.933 536.533 671.181C533.638 669.429 530.229 666.819 525.848 663.371C521.486 659.905 518.305 655.829 515.943 651.162C513.333 621.276 515.924 589.219 513.829 558.971C509.657 525.981 496.971 515.086 471.638 502.438C501.848 500.152 526.667 494.61 546.076 485.905C604.229 457.676 620.286 414 620.552 355.448C619.619 317.752 608.762 284.914 583.943 259.733C587.448 246.419 588.438 232.533 587.01 218.038C585.562 203.543 582.495 190.476 577.848 178.876C556.381 180.057 538.381 184.362 523.867 191.905C509.352 199.448 498.895 205.829 492.514 211.067C441.105 199.39 386.038 199.333 336.705 212.8C311.429 192.171 280.171 180.667 250.457 178.895Z" fill="white"/>
</svg>
