<svg width="2160" height="2021" viewBox="0 0 2160 2021" fill="none" xmlns="http://www.w3.org/2000/svg">
<path d="M1106.24 603.153L579.995 145.968L120.929 580.294L546.405 1037.48L143.323 1448.94L602.389 1906.13L1095.04 1448.94L1610.09 1906.13L2035.57 1426.09L1666.08 1014.62L2035.57 580.294L1576.5 157.398L1106.24 603.153Z" fill="#E7FA16"/>
<path d="M1375.05 1018.46C1375.05 1189.9 1240.69 1327.06 1072.74 1327.06C904.79 1327.06 770.429 1189.9 770.429 1018.46C770.429 847.013 904.79 709.857 1072.74 709.857C1240.69 709.857 1375.05 847.013 1375.05 1018.46Z" fill="#371010"/>
<path d="M1729.59 1014.8L2159.54 575.899L1595.23 -0.152726L1532.52 63.8543L1084.65 521.039L565.126 -9.29419L0.812256 566.758L430.766 1005.65L0.812256 1444.55L565.126 2020.6L1084.65 1490.27L1604.18 2020.6L2168.5 1444.55C2159.54 1453.69 1819.16 1115.38 1729.59 1014.8M1586.27 1782.87L1245.89 1435.41V1334.82C1192.14 1362.26 1138.4 1380.54 1066.74 1380.54C1004.04 1380.54 941.337 1362.26 887.593 1334.82V1435.41L547.21 1782.87L233.702 1462.84L663.658 1023.94L233.702 585.046L547.21 265.017L887.593 612.476V713.054C941.337 685.623 995.081 667.336 1066.74 667.336C1129.44 667.336 1192.14 685.623 1245.89 713.054V612.476L1586.27 265.017L1899.78 585.046L1469.82 1023.94L1899.78 1462.84L1586.27 1782.87Z" fill="black"/>
<path d="M1072.11 759.234C926.557 759.234 814.59 873.53 814.59 1022.12C814.59 1170.7 926.557 1285 1072.11 1285C1217.67 1285 1329.64 1170.7 1329.64 1022.12C1329.64 873.53 1217.67 759.234 1072.11 759.234ZM1195.28 1136.41C1206.48 1102.12 1206.48 1067.83 1217.67 1033.54H1296.05C1296.05 1079.26 1273.66 1124.98 1240.07 1159.27C1228.87 1159.27 1206.48 1147.84 1195.28 1136.41ZM1083.31 1113.55V1044.97H1184.08C1184.08 1079.26 1172.88 1102.12 1161.69 1136.41C1139.29 1113.55 1105.7 1113.55 1083.31 1113.55ZM1217.67 1193.56L1150.49 1227.85C1161.69 1204.99 1172.88 1193.56 1184.08 1170.7C1195.28 1170.7 1206.48 1182.13 1217.67 1193.56ZM1184.08 999.256H1083.31V930.678C1105.7 930.678 1128.1 919.249 1150.49 907.819C1172.88 942.108 1172.88 976.397 1184.08 999.256ZM1184.08 862.101C1172.88 850.671 1161.69 827.812 1150.49 804.953L1217.67 839.241C1206.48 850.671 1195.28 862.101 1184.08 862.101M1083.31 896.39V793.523H1094.51C1116.9 816.382 1128.1 850.671 1139.29 873.53C1128.1 884.96 1105.7 896.39 1083.31 896.39M1083.31 1239.28V1136.41C1105.7 1136.41 1128.1 1147.84 1139.29 1147.84C1139.29 1182.13 1116.9 1216.42 1105.7 1239.28H1083.31M1284.85 999.256H1217.67C1217.67 964.967 1206.48 930.678 1195.28 896.39C1206.48 884.96 1228.87 884.96 1240.07 873.53C1273.66 907.819 1284.85 953.538 1284.85 999.256M859.377 999.256C859.377 953.538 881.77 907.819 915.36 873.53C926.557 884.96 948.95 896.39 960.147 896.39C948.95 930.678 937.754 964.967 937.754 999.256H859.377ZM948.95 1136.41C926.557 1147.84 915.36 1159.27 904.163 1159.27C870.573 1124.98 859.377 1079.26 848.18 1033.54H926.557C937.754 1067.83 937.754 1102.12 948.95 1136.41M960.147 1033.54H1049.72V1102.12C1027.33 1102.12 1004.93 1113.55 982.541 1124.98C971.344 1090.69 971.344 1067.83 960.147 1033.54M971.344 1170.7C982.541 1193.56 993.737 1216.42 1004.93 1227.85C971.344 1216.42 948.95 1204.99 926.557 1193.56C937.754 1182.13 948.95 1170.7 971.344 1170.7ZM1049.72 1147.84V1250.71H1038.52C1027.33 1216.42 1004.93 1182.13 993.737 1159.27C1016.13 1147.84 1038.52 1147.84 1049.72 1147.84M1049.72 930.678V999.256H960.147C960.147 964.967 971.344 942.108 982.541 907.819C1004.93 919.249 1038.52 930.678 1049.72 930.678M926.557 850.671C948.95 827.812 971.344 816.382 993.737 816.382C982.54 827.812 971.344 850.671 960.147 862.101C948.95 862.101 937.754 850.671 926.557 850.671ZM1049.72 793.523V896.39C1027.33 896.39 1004.93 884.96 993.737 884.96C1004.93 862.101 1016.13 827.812 1038.52 804.953L1049.72 793.523" fill="white"/>
</svg>
