<svg width="800" height="800" viewBox="0 0 800 800" fill="none" xmlns="http://www.w3.org/2000/svg">
<g clip-path="url(#clip0_1_4)">
<path d="M400.861 156.559C267.102 156.559 158.28 265.38 158.28 399.141C158.28 441.786 169.503 483.731 190.741 520.441C194.309 526.608 202.203 528.714 208.372 525.15C214.539 521.581 216.648 513.689 213.081 507.519C194.114 474.731 184.087 437.255 184.087 399.141C184.087 279.611 281.331 182.367 400.861 182.367C520.391 182.367 617.634 279.611 617.634 399.141C617.634 518.67 520.391 615.914 400.861 615.914C340.719 615.914 284.812 591.856 243.442 548.172C238.542 542.998 230.375 542.775 225.2 547.677C220.027 552.577 219.803 560.744 224.705 565.919C271 614.8 333.559 641.72 400.861 641.72C534.62 641.72 643.442 532.9 643.442 399.139C643.442 265.378 534.62 156.559 400.861 156.559Z" fill="white"/>
<path d="M400.861 242.581C314.533 242.581 244.302 312.812 244.302 399.141C244.302 485.469 314.533 555.7 400.861 555.7C487.189 555.7 557.42 485.469 557.42 399.141C557.42 312.812 487.187 242.581 400.861 242.581ZM400.861 529.892C328.762 529.892 270.108 471.237 270.108 399.139C270.108 327.041 328.762 268.386 400.861 268.386C472.959 268.386 531.614 327.041 531.614 399.139C531.614 471.237 472.958 529.892 400.861 529.892Z" fill="white"/>
<path d="M621.075 122.15C589.77 122.15 564.302 147.619 564.302 178.925C564.302 210.231 589.77 235.698 621.075 235.698C652.38 235.698 677.85 210.23 677.85 178.925C677.85 147.62 652.38 122.15 621.075 122.15ZM621.075 209.892C604 209.892 590.108 196 590.108 178.925C590.108 161.85 604 147.958 621.075 147.958C638.15 147.958 652.042 161.85 652.042 178.925C652.042 196 638.15 209.892 621.075 209.892Z" fill="white"/>
<path d="M621.936 0H178.064C79.7234 0 0 79.7234 0 178.064V621.934C0 720.277 79.7234 800 178.064 800H621.934C720.277 800 800 720.277 800 621.936V178.064C800 79.7234 720.277 0 621.936 0ZM774.194 621.936C774.194 706.025 706.025 774.194 621.936 774.194H178.064C93.975 774.194 25.8063 706.025 25.8063 621.936V178.064C25.8063 93.975 93.975 25.8063 178.064 25.8063H621.934C706.023 25.8063 774.192 93.975 774.192 178.064V621.936H774.194Z" fill="white"/>
<path d="M616.773 60.2156H183.227C115.291 60.2156 60.2156 115.291 60.2156 183.227V616.775C60.2156 684.711 115.291 739.786 183.227 739.786H616.775C684.711 739.786 739.786 684.711 739.786 616.775V183.227C739.784 115.289 684.711 60.2156 616.773 60.2156ZM713.978 616.773C713.978 670.458 670.458 713.978 616.773 713.978H183.227C129.542 713.978 86.0218 670.458 86.0218 616.773V183.227C86.0218 129.542 129.542 86.0219 183.227 86.0219H616.775C670.459 86.0219 713.98 129.542 713.98 183.227V616.773H713.978Z" fill="white"/>
</g>
<defs>
<clipPath id="clip0_1_4">
<rect width="800" height="800" fill="white"/>
</clipPath>
</defs>
</svg>
