<svg width="800" height="800" viewBox="0 0 800 800" fill="none" xmlns="http://www.w3.org/2000/svg">
<g clip-path="url(#clip0_1_20)">
<path d="M766.603 239.753C745.202 190.859 714.672 147.319 675.864 110.348C670.853 105.575 662.927 105.766 658.153 110.778C653.381 115.788 653.573 123.716 658.583 128.486C733.62 199.972 774.947 296.398 774.947 400C774.947 606.747 606.747 774.948 399.998 774.948C193.25 774.948 25.0516 606.747 25.0516 400C25.0516 193.253 193.253 25.0516 400 25.0516C475.525 25.0516 548.328 47.4047 610.534 89.6906C616.255 93.5797 624.045 92.0937 627.936 86.375C631.825 80.6531 630.339 72.8625 624.619 68.9734C558.241 23.8516 480.57 0 400 0C293.156 0 192.708 41.6063 117.158 117.158C41.6078 192.708 0 293.156 0 400C0 506.844 41.6078 607.292 117.158 682.842C192.708 758.394 293.156 800 400 800C506.844 800 607.292 758.394 682.842 682.842C758.392 607.292 800 506.844 800 400C800 344.294 788.763 290.378 766.603 239.753Z" fill="white"/>
<path d="M581.77 169.613L340.87 281.755C334.598 284.673 331.881 292.127 334.802 298.398C337.722 304.67 345.173 307.391 351.442 304.469L500.045 235.291L427.8 293.777L262.008 427.989L171.327 388.314L298.398 329.161C304.67 326.239 307.387 318.789 304.467 312.517C301.548 306.245 294.094 303.525 287.827 306.447L151.045 370.122C143.773 373.506 139.183 380.911 139.367 388.927C139.547 396.77 144.287 403.83 151.473 406.973L252.727 451.27L282.381 629.197C284.206 640.198 299.103 643.331 305.214 634.002L389.333 505.609L548.413 579.847C561.158 585.8 576.325 576.703 577.147 562.712L599.559 181.698C599.583 181.345 599.581 180.983 599.573 180.628C599.323 171.761 589.798 165.9 581.77 169.613ZM296.903 563.955L277.522 447.661L474.973 287.819L323.852 457.258C322.492 458.783 321.483 460.702 321.014 462.694L296.903 563.955ZM323.514 560.361L341.827 483.442L366.395 494.908L323.514 560.361ZM380.267 473.736L353.756 461.366L484.177 315.137L465.312 343.931L380.267 473.736ZM552.558 554.139L403.205 484.441L571.794 227.122L552.558 554.139Z" fill="white"/>
</g>
<defs>
<clipPath id="clip0_1_20">
<rect width="800" height="800" fill="white"/>
</clipPath>
</defs>
</svg>
