<svg width="800" height="800" viewBox="0 0 800 800" fill="none" xmlns="http://www.w3.org/2000/svg">
<path d="M768.421 535.121C754.046 518.653 739.525 502.3 724.855 486.093C707.243 466.633 682.336 445.569 672.9 420.172C707.586 379.926 737.791 335.608 765.478 290.308C781.21 264.552 806.885 233.529 796.811 202.653C798.021 200.266 797.285 196.815 794.211 195.589C793.949 195.474 793.671 195.425 793.41 195.311C792.281 194.084 790.826 193.675 789.37 193.937C754.292 181.345 713.751 182.996 677.103 184.076C653.439 184.779 630.839 184.305 611.672 197.371C609.89 197.584 608.156 198.369 606.979 200.037C606.537 200.658 606.178 201.312 605.736 201.934C605.474 202.163 605.18 202.326 604.902 202.572C603.757 203.602 603.25 204.812 603.07 206.022C584.918 232.94 570.576 262.834 553.437 290.439C544.214 305.321 534.745 320.088 525.031 334.659C520.174 341.953 515.235 349.181 510.215 356.344C503.003 372.207 490.623 374.955 473.06 364.603C472.863 363.981 472.405 363.72 472.062 363.294C471.588 343.081 469.135 322.95 469.576 302.655C470.149 276.604 476.052 251.207 477.573 225.336C479.11 199.137 472.062 175.408 445.226 167.755C442.151 166.872 439.142 169.047 437.965 171.762C407.351 174.591 380.564 175.31 349.067 169.063C325.698 164.435 306.139 164.337 283.636 171.205C280.66 169.963 276.621 170.846 276.015 174.591C271.633 201.705 289.54 211.664 302.557 233.349C316.114 255.917 316.801 283.097 314.544 308.968C313.383 322.28 312.827 369.263 295.607 374.415C294.92 374.627 294.381 374.955 293.906 375.314C265.271 371.471 224.42 286.171 215.834 272.009C200.527 246.792 185.793 221.247 168.327 197.502C169.521 194.509 168.752 190.83 164.762 189.701C163.912 189.456 163.012 189.293 162.162 189.064C162.015 188.884 161.9 188.72 161.786 188.557C160.085 186.398 157.943 186.463 156.226 187.575C115.669 177.665 67.3277 176.749 26.9834 182.653C5.31494 185.826 2.22412 193.561 2.8292 207.151C1.04667 207.756 -0.441508 209.44 0.130866 211.566C33.3286 332.681 106.38 443.607 195.147 531.556C262.802 598.59 352.877 663.758 450.017 620.045C452.291 619.015 452.291 616.726 451.228 614.976C458.243 609.628 463.967 604.084 468.955 596.464C472.291 591.361 474.76 585.883 477.41 580.421C488.039 558.392 481.956 553.143 511.245 550.919C535.988 549.055 533.061 549.202 548.384 562.481C556.773 569.742 565.294 576.872 573.961 583.806C586.651 593.978 599.816 603.463 613.144 612.752C636.366 640.667 690.84 629.89 722.124 630.365C747.145 630.741 785.969 633.897 795.208 606.456C797.645 605.736 799.673 603.692 799.886 600.127C801.521 573.258 785.298 554.468 768.421 535.121ZM703.367 612.703C684.217 612.212 648.713 616.464 627.797 607.175C627.306 606.128 626.652 605.131 625.573 604.297C597.755 582.988 572.358 559.504 545.588 537.067C534.042 527.386 523.069 516.773 506.879 517.59C468.726 519.536 460.32 585.261 441.971 608.909C440.794 610.413 440.63 612.392 441.105 614.142C231.305 660.52 86.0688 384.636 13.0338 222.392C14.8981 210.83 10.3028 205.106 28.0791 199.072C39.3958 195.229 59.0528 198.859 71.1053 199.105C99.7404 199.677 128.555 202.686 157.191 201.656C171.173 231.125 188.933 258.681 205.712 286.629C222.409 314.446 238.304 347.235 259.695 371.831C272.761 386.86 297.144 402.641 309.965 378.667C310.031 378.536 309.965 378.372 310.015 378.242C327.725 363.867 328.347 329.443 329.786 308.968C331.291 287.643 328.837 269.376 320.497 249.457C311.045 226.873 289.425 208.573 287.12 183.732C317.537 181.933 344.815 191.042 374.84 194.329C399.387 197.011 424.195 193.119 447.908 186.758C455.12 196.504 457.883 208.524 458.554 221.362C432.11 216.488 404.882 215.082 378.143 215.491C377.031 215.507 377.031 217.208 378.143 217.208C405.454 217.257 431.963 220.462 458.701 224.567C458.897 232.401 458.407 240.463 457.655 248.492C419.976 243.619 381.578 242.131 343.703 239.187C342.395 239.089 342.411 241.101 343.703 241.215C381.463 244.682 419.485 249.67 457.377 251.223C456.199 262.949 454.695 274.495 454.335 284.814C454.188 284.716 454.22 284.487 454.008 284.487C422.772 283.783 392.142 282.312 361.267 277.046C360.007 276.833 359.468 278.747 360.727 278.975C391.439 284.585 422.756 288.084 454.008 286.482C454.171 286.465 454.138 286.269 454.269 286.22C454.253 286.94 454.155 287.725 454.155 288.444C454.073 300.431 454.237 312.566 455.038 324.635C438.635 323.473 422.184 322.721 405.765 321.805C404.505 321.74 404.505 323.686 405.765 323.768C422.216 324.88 438.684 326.155 455.169 327.022C456.101 339.631 457.802 352.141 460.86 364.308C442.544 358.993 423.901 358.83 405.356 363.196C404.244 363.458 404.718 365.126 405.83 364.897C424.244 360.956 442.233 361.626 460.451 366.271C460.86 366.369 461.023 366.042 461.236 365.797C461.988 368.691 462.495 371.667 463.411 374.529C463.787 375.674 464.507 376.459 465.341 376.966C471.604 400.253 505.538 390.098 519.945 373.646C558.262 329.884 596.823 267.037 616.186 211.125C641.943 198.516 676.825 201.607 704.528 201.165C731.495 200.724 758.037 204.011 784.824 204.796C785.282 210.634 784.186 217.012 782.273 223.602C762.403 224.665 743.008 226.579 722.975 225.875C722.288 225.843 722.337 226.84 722.975 226.906C741.912 229.13 762.534 229.915 781.521 226.464C774.063 248.967 755.845 274.233 741.503 294.07C721.585 293.301 701.503 294.004 681.584 294.119C679.589 294.135 679.589 297.21 681.584 297.226C700.75 297.324 720.031 297.929 739.181 297.291C735.207 302.786 731.593 307.84 728.731 312.173C724.332 318.845 719.688 325.354 715.109 331.896C689.99 332.484 665.165 332.304 640.079 329.573C638.132 329.361 638.165 332.386 640.079 332.615C664.118 335.461 688.452 336.802 712.656 335.444C702.843 349.378 692.851 363.18 682.68 376.852C653.587 376.459 624.444 376.966 595.368 377.113C593.7 377.113 593.7 379.697 595.368 379.697C623.676 379.844 652.033 380.302 680.357 379.975C673.096 389.722 665.835 399.468 658.591 409.264C657.25 411.063 656.988 412.96 657.282 414.775C627.486 413.058 597.608 412.47 567.796 411.537C565.997 411.488 565.997 414.268 567.796 414.334C597.543 415.511 627.339 417.049 657.103 417.474C657.103 417.49 657.103 417.506 657.103 417.523C658.656 431.996 665.525 444.016 674.29 455.054C638.754 456.264 603.414 457.524 567.812 456.264C566.373 456.215 566.373 458.439 567.812 458.505C603.888 460.075 640.324 460.549 676.367 457.524C684.822 467.728 694.683 477.213 703.236 487.14C706.409 490.82 709.941 494.63 713.686 498.555C652.654 493.338 591.067 490.116 529.872 487.892C528.743 487.843 528.776 489.528 529.872 489.609C591.672 494.728 653.995 498.898 716.008 500.942C726.442 511.768 738.282 523.396 749.353 535.677C710.742 532.799 672.017 531.082 633.357 528.923C632.474 528.874 632.474 530.248 633.357 530.297C672.589 532.865 711.838 535.874 751.119 537.656C758.544 546.029 765.559 554.647 771.3 563.511C744.594 562.546 717.856 561.99 691.151 561.303C679.164 560.993 650.905 554.026 641.599 563.217C641.37 563.446 641.37 563.838 641.599 564.067C642.205 564.689 642.81 565.31 643.415 565.931C643.611 566.144 643.938 566.111 644.151 565.931L645.557 564.656C646.015 564.231 645.344 563.577 644.87 563.969C654.568 555.809 699.066 564.067 712.77 564.574C732.95 565.326 753.147 566.144 773.344 566.7C779.133 576.218 783.467 585.948 785.331 595.842C768.487 621.239 729.974 613.373 703.367 612.703Z" fill="white"/>
<path d="M777.988 595.679C731.986 590.282 685.034 584.591 639.13 580.601C640.504 580.715 640.438 578.671 639.13 578.491C638.427 578.393 637.724 578.311 637.02 578.213C636.513 578.147 636.121 578.605 635.957 579.014C635.647 579.832 635.32 580.65 635.009 581.467C634.878 581.827 635.025 582.334 635.303 582.596C645.328 591.492 670.905 588.352 683.301 589.53C714.831 592.522 746.393 595.924 777.988 598.082C779.558 598.197 779.493 595.842 777.988 595.679Z" fill="white"/>
<path d="M761.095 254.56C742.452 255.377 724.463 257.405 705.722 256.064C703.955 255.933 703.988 258.632 705.722 258.795C723.907 260.431 743.531 261.379 761.455 257.274C762.975 256.915 762.665 254.494 761.095 254.56Z" fill="white"/>
</svg>
