<svg width="800" height="800" viewBox="0 0 800 800" fill="none" xmlns="http://www.w3.org/2000/svg">
<path d="M554.047 373.473L554.221 373.48H558.56C589.136 373.48 614.008 398.028 614.008 428.198V428.518L614.036 428.834C616.059 455.236 617.042 482.837 616.96 510.871C617.042 538.955 616.059 566.556 614.036 592.958L614.008 593.275V593.594C614.008 623.767 584.969 648.314 554.394 648.314L558.215 648.319C509.379 650.358 453.484 651.342 400.308 651.244C347.1 651.342 291.208 650.358 242.373 648.319L246.193 648.314C215.617 648.314 186.576 623.767 186.576 593.594V593.275L186.552 592.958C184.527 566.569 183.543 538.968 183.626 510.918C183.543 482.833 184.526 455.232 186.552 428.834L186.576 428.518V428.198C186.576 398.028 215.617 373.48 246.192 373.48L242.372 373.473C291.2 371.434 347.095 370.451 400.277 370.547C453.493 370.451 505.22 371.434 554.047 373.473ZM533.356 500.139C533.356 494.106 534.281 489.783 536.144 487.168C538.002 484.559 541.062 483.249 545.326 483.249C549.406 483.249 552.378 484.559 554.24 487.168C556.098 489.783 557.027 494.106 557.027 500.139V514.727H533.356V500.139ZM584.604 537.099V500.407C584.604 486.729 581.311 476.246 574.734 468.955C568.152 461.662 558.734 458.016 546.476 458.016C534.485 458.016 524.705 461.955 517.138 469.828C509.563 477.706 505.778 487.896 505.778 500.407V565.095C505.778 578.967 509.225 589.866 516.119 597.794C523.015 605.718 532.458 609.681 544.448 609.681C557.787 609.681 567.817 605.941 574.533 598.466C581.246 590.991 584.604 579.866 584.604 565.095V554.271H557.027V564.286C557.027 572.765 556.142 578.251 554.375 580.727C552.606 583.207 549.499 584.446 545.058 584.446C540.788 584.446 537.774 582.984 536.005 580.049C534.238 577.118 533.356 571.862 533.356 564.286V537.099H584.604ZM457.991 572C457.991 576.594 457.214 579.906 455.671 581.932C454.125 583.955 451.714 584.967 448.442 584.967L441.96 583.416L435.618 578.352V488.539L441.142 484.148L446.804 482.729C450.438 482.729 453.216 483.994 455.124 486.514C457.037 489.034 457.991 492.725 457.991 497.587V572ZM459.442 459.837C455.286 459.837 451.183 460.983 447.12 463.271C443.061 465.564 439.228 468.905 435.618 473.303V410.408H408.562V605.779H435.618V594.7C439.138 599.087 442.953 602.337 447.058 604.442C451.161 606.547 455.833 607.6 461.069 607.6C469.007 607.6 475.076 604.886 479.271 599.447C483.465 594.008 485.568 586.166 485.568 575.919V495.964C485.568 484.193 483.332 475.226 478.864 469.072C474.397 462.917 467.922 459.837 459.442 459.837ZM355.625 571.055L347.342 578.814C344.333 580.839 341.845 581.846 339.871 581.846C337.355 581.846 335.537 581.081 334.415 579.553C333.294 578.024 332.733 575.554 332.733 572.137V461.658H305.937V582.118C305.937 590.698 307.507 597.135 310.649 601.427C313.793 605.718 318.462 607.861 324.657 607.861C329.68 607.861 334.867 606.324 340.207 603.265C345.552 600.2 350.686 595.731 355.625 589.869V605.779H382.42V461.658H355.625V571.055ZM306.304 410.408H213.691V438.764H244.909V605.779H275.084V438.764H306.304V410.408ZM257.131 152.439H287.522L307.102 230.531H308.997L327.666 152.439H358.327L323.207 266.74V347.809H293.031V270.391L257.131 152.439ZM384.536 314.046C384.536 318.015 385.487 321.075 387.398 323.238C389.304 325.4 392.027 326.476 395.572 326.476C399.205 326.476 402.088 325.375 404.226 323.168C406.36 320.96 407.428 317.922 407.428 314.046V235.555C407.428 232.405 406.336 229.86 404.157 227.926C401.978 225.991 399.117 225.019 395.572 225.019C392.303 225.019 389.645 225.991 387.601 227.926C385.557 229.86 384.536 232.405 384.536 235.555V314.046ZM356.96 236.637C356.96 225.475 360.565 216.588 367.78 209.972C374.997 203.354 384.689 200.045 396.868 200.045C407.958 200.045 417.042 203.536 424.123 210.512C431.205 217.486 434.745 226.465 434.745 237.449V311.887C434.745 324.222 431.268 333.898 424.326 340.918C417.383 347.939 407.823 351.449 395.648 351.449C383.926 351.449 374.544 347.824 367.513 340.581C360.477 333.337 356.96 323.593 356.96 311.348V236.637ZM533.973 203.687V347.809H507.178V331.899C502.239 337.761 497.101 342.228 491.76 345.294C486.418 348.354 481.232 349.891 476.207 349.891C470.014 349.891 465.342 347.748 462.201 343.454C459.058 339.164 457.489 332.728 457.489 324.147V203.687H484.285V314.165C484.285 317.584 484.846 320.054 485.967 321.582C487.089 323.111 488.906 323.877 491.423 323.877C493.398 323.877 495.885 322.866 498.894 320.843L507.178 313.083V203.687H533.973Z" fill="white"/>
</svg>
